<svg id="Layer_1" data-name="Layer 1" xmlns="http://www.w3.org/2000/svg" viewBox="0 0 282 282"><defs><style>.cls-1{fill:#fff;fill-rule:evenodd;}</style></defs><title>Typsy_logomark</title><path class="cls-1" d="M207.09,0a30.5,30.5,0,0,0-30.5,30.5V76.75A30.48,30.48,0,0,0,141,83a30.49,30.49,0,0,0-52.32,17.59A30.5,30.5,0,0,0,44.41,127.8v57.61a96.59,96.59,0,0,0,193.17,0V30.5A30.5,30.5,0,0,0,207.09,0ZM193.53,30.5a13.56,13.56,0,1,1,27.11,0h0V118a52.35,52.35,0,0,0-27.11-13.21V30.5Zm-30.5,60a13.56,13.56,0,0,1,13.56,13.56H149.47A13.56,13.56,0,0,1,163,90.52Zm13.56,88.11A13.56,13.56,0,0,1,149.9,182h-.62a30.8,30.8,0,0,0,.19-3.39V165.08H163A13.56,13.56,0,0,1,176.58,178.63Zm-71.17-74.56a13.56,13.56,0,0,1,27.11,0h0v5.14a30.49,30.49,0,0,0,0,50.71v18.71h0a13.56,13.56,0,1,1-27.11,0ZM61.36,127.8a13.56,13.56,0,0,1,27.11,0h0v27.11h0a13.56,13.56,0,0,1-27.11,0Zm159.28,57.61h0a79.64,79.64,0,0,1-159.28,0v-3.18a30.49,30.49,0,0,0,27.32-.11A30.49,30.49,0,0,0,141,199.72a30.5,30.5,0,1,0,22-51.59H149.47a13.56,13.56,0,0,1,0-27.11h35.58a35.58,35.58,0,0,1,35.58,35.58Z"/></svg>