<svg id="Layer_1" data-name="Layer 1" xmlns="http://www.w3.org/2000/svg" viewBox="0 0 103 49"><defs><style>.cls-1{fill:#fff;fill-rule:evenodd;}</style></defs><title>Typsy_logotype</title><path class="cls-1" d="M102.08,16H96.41A1.43,1.43,0,0,0,95,17l-5,15.46a.28.28,0,0,1-.52,0l-5.2-15.56A1.31,1.31,0,0,0,83.13,16h-6a.48.48,0,0,0-.45.65.09.09,0,0,1-.12.12q-.52-.2-1.06-.37a16.26,16.26,0,0,0-4.89-.78A12.17,12.17,0,0,0,67,16.1a8.44,8.44,0,0,0-2.93,1.56,7.62,7.62,0,0,0-2,2.53A6.94,6.94,0,0,0,61.52,22a.23.23,0,0,1-.44.06,12.12,12.12,0,0,0-2.17-3.18,10.64,10.64,0,0,0-3.69-2.53,11.26,11.26,0,0,0-4.3-.85,8.78,8.78,0,0,0-4.7,1.16A11.33,11.33,0,0,0,43.52,19a.27.27,0,0,1-.48-.18v-2a.9.9,0,0,0-.9-.9H30.89a1.48,1.48,0,0,0-1.41,1L24.53,32.41a.27.27,0,0,1-.52,0L18.85,17a1.5,1.5,0,0,0-1.42-1H8.19a.61.61,0,0,1-.61-.61V10.25a.52.52,0,0,0-.71-.49L1.31,11.89a1.19,1.19,0,0,0-.9,1c0,.42,0,1.79,0,2.55V34.11a10.5,10.5,0,0,0,.54,3.66,6,6,0,0,0,1.51,2.34,5.34,5.34,0,0,0,2.32,1.25,11.8,11.8,0,0,0,3,.35,11.28,11.28,0,0,0,3.17-.4,7.8,7.8,0,0,0,1.9-.77,2.18,2.18,0,0,0,.87-1l.85-2.25.55-1.45a.78.78,0,0,0-.75-1l-.15,0a22,22,0,0,1-4.3.54q-2.32,0-2.32-2.46V22.64a.54.54,0,0,1,.54-.54h4.52a1,1,0,0,1,.88.6L20.68,41a.84.84,0,0,1-.06.74,2.77,2.77,0,0,1-.81.93,2.7,2.7,0,0,1-1.49.35,4.77,4.77,0,0,1-1.54-.28l-1.11-.44a.85.85,0,0,0-1.13.52c-.27.81-.71,2.09-1.23,3.33a1.3,1.3,0,0,0,.64,1.67,13.82,13.82,0,0,0,1.77.69,11.76,11.76,0,0,0,3.5.47,9.65,9.65,0,0,0,2.84-.38,5.94,5.94,0,0,0,2.2-1.23A9.09,9.09,0,0,0,26,45.19a19.65,19.65,0,0,0,1.51-3.29L35.39,21a.24.24,0,0,1,.46.08V48.17a.69.69,0,0,0,.69.69h5.64A.86.86,0,0,0,43,48V38.67a.26.26,0,0,1,.45-.18,13,13,0,0,0,2.69,2.15,9,9,0,0,0,4.75,1.13,11.38,11.38,0,0,0,4.35-.85,10.41,10.41,0,0,0,3.66-2.53,12.82,12.82,0,0,0,2.55-4.11,15.06,15.06,0,0,0,1-5.6v-.09q0-.2,0-.4a.23.23,0,0,1,.41-.15,6.8,6.8,0,0,0,1,.95,9.58,9.58,0,0,0,2.43,1.42,26.86,26.86,0,0,0,2.67.92l2,.61a17,17,0,0,1,1.68.59,3.57,3.57,0,0,1,1.16.73,1.36,1.36,0,0,1,.43,1v.09a1.61,1.61,0,0,1-.73,1.37,4,4,0,0,1-2.29.52,11.2,11.2,0,0,1-3.85-.76,26.56,26.56,0,0,1-3.55-1.9.64.64,0,0,0-.91.36c-.09.26-.18.51-.28.76a15.15,15.15,0,0,1-1.45,2.79.93.93,0,0,0,.29,1.31,29.08,29.08,0,0,0,4.06,2,15.94,15.94,0,0,0,5.51.92,14.07,14.07,0,0,0,3.8-.5,9.27,9.27,0,0,0,3.1-1.49,6.73,6.73,0,0,0,2.06-2.53,8.44,8.44,0,0,0,.73-3.66V33.5a5.86,5.86,0,0,0-.71-3,7.14,7.14,0,0,0-1.8-2.08A11.08,11.08,0,0,0,75.7,27q-1.37-.59-2.69-1-1-.33-2-.66a15.07,15.07,0,0,1-1.63-.69,4.71,4.71,0,0,1-1.13-.76,1.24,1.24,0,0,1-.43-.92v-.09a1.51,1.51,0,0,1,.66-1.25,3.29,3.29,0,0,1,2-.5,9.63,9.63,0,0,1,3.17.64c1.12.4,2.08.79,2.68,1.06a1,1,0,0,0,1.2-.29l.71-.87a.26.26,0,0,1,.44.07L86.25,41a.81.81,0,0,1-.06.71,2.79,2.79,0,0,1-.82.94,2.71,2.71,0,0,1-1.49.35,4.77,4.77,0,0,1-1.54-.28l-1-.4a1,1,0,0,0-1.32.59l-1.29,3.5a1,1,0,0,0,.48,1.19,18.65,18.65,0,0,0,2.11.89,11.76,11.76,0,0,0,3.5.47,9.65,9.65,0,0,0,2.84-.38,5.94,5.94,0,0,0,2.2-1.23,9.09,9.09,0,0,0,1.77-2.2,19.65,19.65,0,0,0,1.51-3.29l9.47-25.24A.53.53,0,0,0,102.08,16ZM50,35.52c-3.24.28-6.14-2.6-6.48-6.45s2-7.19,5.26-7.47,6.14,2.6,6.48,6.45S53.25,35.24,50,35.52Z"/></svg>